<?xml version="1.0" encoding="UTF-8" standalone="no" ?>
<!DOCTYPE svg PUBLIC "-//W3C//DTD SVG 1.1//EN" "http://www.w3.org/Graphics/SVG/1.1/DTD/svg11.dtd">
<svg xmlns="http://www.w3.org/2000/svg" xmlns:xlink="http://www.w3.org/1999/xlink" version="1.1" width="500" height="500" viewBox="0 0 500 500" xml:space="preserve">
<!-- Created with SVG Stack Editor - https://svgstack.com -->
<defs>
</defs>
<rect x="0" y="0" width="100%" height="100%" fill="transparent"></rect>
<g transform="matrix(0.7 0 0 0.7 250 250)"  >
<g style=""   >
		<g transform="matrix(2 0 0 2 0 0)" id="path_0"  >
<path style="stroke: none; stroke-width: 1; stroke-dasharray: none; stroke-linecap: butt; stroke-dashoffset: 0; stroke-linejoin: miter; stroke-miterlimit: 4; fill: rgb(209,0,209); fill-opacity: 0.82; fill-rule: nonzero; opacity: 1;"  transform=" translate(-255.74, -255.6)" d="M 131.336 117.142 C 118.483 114.859 95.0979 110.174 82.7173 106.17 C 77.2221 104.392 77.5857 98.1921 82.5413 96.2661 C 87.4015 96.1588 97.0121 99.156 102.144 100.295 L 122.507 104.89 C 127.727 106.055 134.484 106.571 139.119 109.374 C 141.293 112.71 149.656 147.134 151.259 153.502 L 400.595 153.503 C 410.636 153.503 420.808 153.112 430.832 153.502 C 437.256 159.233 425.806 182.088 422.993 190.587 L 401.813 256.949 C 391.305 289.785 386.003 290.276 355.3 290.266 L 187.134 290.255 C 188.422 296.4 190.039 302.504 191.568 308.594 C 196.744 329.203 195.386 326.136 214.664 326.119 L 376.272 326.098 C 386.989 326.095 395.592 324.289 402.767 334.043 C 408.395 343.669 404.03 356.424 392.559 359.079 C 382.051 361.512 351.12 359.349 338.728 359.689 C 356.355 363.396 367.392 380.24 360.032 397.498 C 353.717 412.304 336.166 418.662 321.584 412.227 C 297.805 401.733 299.713 369.601 326.044 359.689 L 238.412 359.689 C 282.551 378.853 248.477 429.074 217.123 411.113 C 194.436 398.116 199.261 366.141 224.537 359.689 C 214.135 359.576 196.074 360.914 186.727 358.37 C 156.037 350.016 149.923 309.258 177.73 293.907 C 175.54 284.111 172.7 274.443 170.078 264.755 L 131.336 117.142 Z M 168.936 163.409 L 153.868 163.409 L 181.152 267.273 C 182.308 271.586 183.279 276.012 185.093 280.104 L 208.125 280.104 L 222.626 280.104 C 217.748 263.501 211.971 247.158 206.813 230.641 L 193.554 189.076 C 190.792 180.517 188.191 171.852 185.093 163.409 L 168.936 163.409 Z M 195.869 163.409 C 196.771 167.204 198.275 170.993 199.459 174.721 L 219.199 236.135 C 223.947 250.706 229.113 265.297 233.076 280.104 L 356.962 280.11 C 386.034 280.109 384.218 277.231 392.851 252.213 C 402.258 222.588 411.362 192.896 421.214 163.409 L 195.869 163.409 Z M 179.928 304.036 C 161.523 318.705 170.519 347.072 194.147 349.318 C 201.252 349.993 208.738 349.56 215.878 349.559 L 385.655 349.553 C 394.277 349.337 398.292 342.204 392.188 337.583 C 388.565 334.839 374.302 336.195 369.683 336.202 L 212.107 336.219 C 195.435 336.231 188.141 336.368 183.617 318.435 L 181.324 309.153 C 180.978 307.703 180.719 305.267 179.928 304.036 Z M 229.409 369.111 C 205.985 371.518 207.618 405.088 233.076 404.728 C 248.834 402.221 255.517 382.161 241.612 372.218 C 238.488 369.985 233.278 367.885 229.409 369.111 Z M 332.961 369.111 C 308.814 370.973 309.799 404.586 334.639 404.728 C 358.668 402.185 357.243 369.312 332.961 369.111 Z" stroke-linecap="round" />
</g>
		<g transform="matrix(2 0 0 2 206.89 -114.84)" id="path_1"  >
<path style="stroke: none; stroke-width: 1; stroke-dasharray: none; stroke-linecap: butt; stroke-dashoffset: 0; stroke-linejoin: miter; stroke-miterlimit: 4; fill: rgb(209,0,209); fill-opacity: 0.82; fill-rule: nonzero; opacity: 1;"  transform=" translate(-359.18, -198.18)" d="M 387.492 203.168 C 384.983 203.339 382.408 203.181 379.891 203.179 L 364.243 203.18 C 358.209 203.18 333.489 204.46 329.181 202.204 C 324.332 199.665 326.647 193.925 331.216 192.986 C 338.676 192.936 385.428 192.382 388.727 193.581 C 394.147 195.549 391.783 201.63 387.492 203.168 Z" stroke-linecap="round" />
</g>
		<g transform="matrix(2 0 0 2 221.62 -45.45)" id="path_2"  >
<path style="stroke: none; stroke-width: 1; stroke-dasharray: none; stroke-linecap: butt; stroke-dashoffset: 0; stroke-linejoin: miter; stroke-miterlimit: 4; fill: rgb(209,0,209); fill-opacity: 0.82; fill-rule: nonzero; opacity: 1;"  transform=" translate(-366.55, -232.87)" d="M 381.067 238.02 C 377.706 238.421 354.007 238.181 351.588 237.38 C 346.569 235.719 347.909 229.435 352.284 227.723 C 356.68 227.485 378.084 227.311 381.256 228.252 C 386.657 229.856 385.071 235.928 381.067 238.02 Z" stroke-linecap="round" />
</g>
</g>
</g>
<g transform="matrix(0.7 0 0 0.7 250 250)"  >
<g style=""   >
		<g transform="matrix(2 0 0 2 0 0)" id="path_0"  >
<path style="stroke: none; stroke-width: 1; stroke-dasharray: none; stroke-linecap: butt; stroke-dashoffset: 0; stroke-linejoin: miter; stroke-miterlimit: 4; fill: rgb(209,0,209); fill-opacity: 0.82; fill-rule: nonzero; opacity: 1;"  transform=" translate(-255.74, -255.6)" d="M 131.336 117.142 C 118.483 114.859 95.0979 110.174 82.7173 106.17 C 77.2221 104.392 77.5857 98.1921 82.5413 96.2661 C 87.4015 96.1588 97.0121 99.156 102.144 100.295 L 122.507 104.89 C 127.727 106.055 134.484 106.571 139.119 109.374 C 141.293 112.71 149.656 147.134 151.259 153.502 L 400.595 153.503 C 410.636 153.503 420.808 153.112 430.832 153.502 C 437.256 159.233 425.806 182.088 422.993 190.587 L 401.813 256.949 C 391.305 289.785 386.003 290.276 355.3 290.266 L 187.134 290.255 C 188.422 296.4 190.039 302.504 191.568 308.594 C 196.744 329.203 195.386 326.136 214.664 326.119 L 376.272 326.098 C 386.989 326.095 395.592 324.289 402.767 334.043 C 408.395 343.669 404.03 356.424 392.559 359.079 C 382.051 361.512 351.12 359.349 338.728 359.689 C 356.355 363.396 367.392 380.24 360.032 397.498 C 353.717 412.304 336.166 418.662 321.584 412.227 C 297.805 401.733 299.713 369.601 326.044 359.689 L 238.412 359.689 C 282.551 378.853 248.477 429.074 217.123 411.113 C 194.436 398.116 199.261 366.141 224.537 359.689 C 214.135 359.576 196.074 360.914 186.727 358.37 C 156.037 350.016 149.923 309.258 177.73 293.907 C 175.54 284.111 172.7 274.443 170.078 264.755 L 131.336 117.142 Z M 168.936 163.409 L 153.868 163.409 L 181.152 267.273 C 182.308 271.586 183.279 276.012 185.093 280.104 L 208.125 280.104 L 222.626 280.104 C 217.748 263.501 211.971 247.158 206.813 230.641 L 193.554 189.076 C 190.792 180.517 188.191 171.852 185.093 163.409 L 168.936 163.409 Z M 195.869 163.409 C 196.771 167.204 198.275 170.993 199.459 174.721 L 219.199 236.135 C 223.947 250.706 229.113 265.297 233.076 280.104 L 356.962 280.11 C 386.034 280.109 384.218 277.231 392.851 252.213 C 402.258 222.588 411.362 192.896 421.214 163.409 L 195.869 163.409 Z M 179.928 304.036 C 161.523 318.705 170.519 347.072 194.147 349.318 C 201.252 349.993 208.738 349.56 215.878 349.559 L 385.655 349.553 C 394.277 349.337 398.292 342.204 392.188 337.583 C 388.565 334.839 374.302 336.195 369.683 336.202 L 212.107 336.219 C 195.435 336.231 188.141 336.368 183.617 318.435 L 181.324 309.153 C 180.978 307.703 180.719 305.267 179.928 304.036 Z M 229.409 369.111 C 205.985 371.518 207.618 405.088 233.076 404.728 C 248.834 402.221 255.517 382.161 241.612 372.218 C 238.488 369.985 233.278 367.885 229.409 369.111 Z M 332.961 369.111 C 308.814 370.973 309.799 404.586 334.639 404.728 C 358.668 402.185 357.243 369.312 332.961 369.111 Z" stroke-linecap="round" />
</g>
		<g transform="matrix(2 0 0 2 206.89 -114.84)" id="path_1"  >
<path style="stroke: none; stroke-width: 1; stroke-dasharray: none; stroke-linecap: butt; stroke-dashoffset: 0; stroke-linejoin: miter; stroke-miterlimit: 4; fill: rgb(209,0,209); fill-opacity: 0.82; fill-rule: nonzero; opacity: 1;"  transform=" translate(-359.18, -198.18)" d="M 387.492 203.168 C 384.983 203.339 382.408 203.181 379.891 203.179 L 364.243 203.18 C 358.209 203.18 333.489 204.46 329.181 202.204 C 324.332 199.665 326.647 193.925 331.216 192.986 C 338.676 192.936 385.428 192.382 388.727 193.581 C 394.147 195.549 391.783 201.63 387.492 203.168 Z" stroke-linecap="round" />
</g>
		<g transform="matrix(2 0 0 2 221.62 -45.45)" id="path_2"  >
<path style="stroke: none; stroke-width: 1; stroke-dasharray: none; stroke-linecap: butt; stroke-dashoffset: 0; stroke-linejoin: miter; stroke-miterlimit: 4; fill: rgb(209,0,209); fill-opacity: 0.82; fill-rule: nonzero; opacity: 1;"  transform=" translate(-366.55, -232.87)" d="M 381.067 238.02 C 377.706 238.421 354.007 238.181 351.588 237.38 C 346.569 235.719 347.909 229.435 352.284 227.723 C 356.68 227.485 378.084 227.311 381.256 228.252 C 386.657 229.856 385.071 235.928 381.067 238.02 Z" stroke-linecap="round" />
</g>
</g>
</g>
</svg>