<?xml version="1.0" encoding="UTF-8" standalone="no" ?>
<!DOCTYPE svg PUBLIC "-//W3C//DTD SVG 1.1//EN" "http://www.w3.org/Graphics/SVG/1.1/DTD/svg11.dtd">
<svg xmlns="http://www.w3.org/2000/svg" xmlns:xlink="http://www.w3.org/1999/xlink" version="1.1" width="500" height="500" viewBox="0 0 500 500" xml:space="preserve">
<!-- Created with SVG Stack Editor - https://svgstack.com -->
<defs>
</defs>
<rect x="0" y="0" width="100%" height="100%" fill="transparent"></rect>
<g transform="matrix(0.69 0 0 0.69 250 250)"  >
<g style=""   >
		<g transform="matrix(2 0 0 2 -116.41 -82.69)" id="path_0"  >
<path style="stroke: none; stroke-width: 1; stroke-dasharray: none; stroke-linecap: butt; stroke-dashoffset: 0; stroke-linejoin: miter; stroke-miterlimit: 4; fill: rgb(209,0,209); fill-rule: nonzero; opacity: 1;"  transform=" translate(-197.47, -214.14)" d="M 113.782 276.345 C 94.734 278.199 77.2171 261.86 74.8022 243.498 C 73.902 236.654 74.4523 229.245 74.4528 222.322 L 74.4566 147.798 C 74.4524 141.588 73.8308 134.872 74.7914 128.746 C 77.4298 111.919 92.0846 99.3825 108.657 97.2273 L 109.023 97.2214 C 122.344 97.0203 135.698 97.2325 149.023 97.2337 L 265.994 97.2229 C 273.212 97.2124 281.108 96.5946 288.233 97.8064 C 307.513 101.086 320.607 117.7 320.692 137.093 L 320.683 228.661 C 320.693 249.672 317.117 269.169 292.529 275.328 C 285.237 277.154 275.09 276.343 267.427 276.343 L 232.312 276.345 L 186.874 276.345 C 182.642 280.066 178.706 284.31 174.689 288.279 L 147.242 315.713 C 143.214 319.724 137.167 326.483 132.753 329.545 C 126.486 333.891 115.675 329.279 114.136 321.815 C 113.212 317.332 113.764 311.086 113.765 306.37 L 113.782 276.345 Z M 113.782 107.793 C 88.6716 109.458 85.1985 124.866 85.2507 146.324 L 85.259 217.378 C 85.2555 235.75 82.3608 260.828 107.372 265.403 C 125.463 268.712 124.569 260.951 124.54 283.221 L 124.508 306.419 C 124.506 308.034 123.633 320.866 126.103 320.483 L 125.669 320.367 C 128.685 320.388 137.777 309.838 140.364 307.287 L 165.825 282.074 C 183.432 264.397 177.319 265.831 201.95 265.837 L 228.375 265.846 L 267.105 265.836 C 273.546 265.839 283.695 266.571 289.678 265.179 C 308.151 260.88 310.048 245.916 310.055 230.716 L 310.053 138.483 C 310.043 129.138 308.008 122.478 301.213 115.768 C 291.5 106.177 278.615 107.79 266.129 107.791 L 113.782 107.793 Z" stroke-linecap="round" />
</g>
		<g transform="matrix(2 0 0 2 -113.51 -198.47)" id="path_1"  >
<path style="stroke: none; stroke-width: 1; stroke-dasharray: none; stroke-linecap: butt; stroke-dashoffset: 0; stroke-linejoin: miter; stroke-miterlimit: 4; fill: rgb(209,0,209); fill-rule: nonzero; opacity: 1;"  transform=" translate(-198.92, -156.25)" d="M 208.625 161.538 L 135.801 161.535 C 131.848 161.552 121.058 163.05 120.759 156.95 C 120.398 149.564 128.565 150.912 133.489 150.93 L 189.326 150.952 L 262.496 150.933 C 267.004 150.913 277.188 149.462 277.089 156.479 C 277 162.745 269.179 161.566 265.004 161.562 L 208.625 161.538 Z" stroke-linecap="round" />
</g>
		<g transform="matrix(2 0 0 2 148.51 78.65)" id="path_2"  >
<path style="stroke: none; stroke-width: 1; stroke-dasharray: none; stroke-linecap: butt; stroke-dashoffset: 0; stroke-linejoin: miter; stroke-miterlimit: 4; fill: rgb(209,0,209); fill-rule: nonzero; opacity: 1;"  transform=" translate(-329.93, -294.81)" d="M 222.933 306.37 C 222.914 302.87 221.503 283.918 231.125 290.432 C 234.645 292.815 233.567 299.173 233.529 302.742 L 233.505 317.877 C 233.515 322.094 233.277 326.56 234.169 330.699 C 238.87 352.511 261.105 349.464 277.544 349.461 L 316.36 349.493 C 321.783 349.485 328.44 347.684 332.877 351.567 C 344.472 361.717 379.406 400.655 385.027 403.035 C 389.069 404.747 387.755 389.552 387.754 387.713 L 387.734 364.859 C 387.73 361.125 387.034 355.351 388.558 351.923 C 390.431 347.712 405.513 350.16 412.477 347.161 C 428.901 340.088 426.234 322.239 426.234 307.741 L 426.231 230.3 C 426.227 213.71 429.727 193.276 409.277 187.204 C 403.954 185.624 389.982 186.35 383.642 186.35 L 351.508 186.339 C 347.929 186.352 341.138 187.079 338.007 185.735 C 332.846 183.52 334.756 177.274 339.282 175.789 C 343.112 175.612 347.026 175.771 350.863 175.775 L 392.616 175.777 C 398.949 175.775 405.871 175.338 412.052 176.871 C 440.858 184.017 436.915 213.682 436.915 236.009 L 436.911 315.244 C 436.896 344.147 429.73 358.75 398.481 359.822 L 398.5 389.05 C 398.506 399.063 400.432 413.926 385.004 413.918 C 378.629 413.915 375.857 409.729 371.707 405.554 L 326.385 360.287 C 319.442 359.347 312.027 359.811 305.014 359.811 L 269.184 359.83 C 254.585 359.85 243.985 360.68 232.85 349.511 C 220.725 337.349 222.908 321.988 222.933 306.37 Z" stroke-linecap="round" />
</g>
		<g transform="matrix(2 0 0 2 -205.06 -143.03)" id="path_3"  >
<path style="stroke: none; stroke-width: 1; stroke-dasharray: none; stroke-linecap: butt; stroke-dashoffset: 0; stroke-linejoin: miter; stroke-miterlimit: 4; fill: rgb(209,0,209); fill-rule: nonzero; opacity: 1;"  transform=" translate(-153.14, -183.97)" d="M 120.622 183.781 C 121.426 180.812 122.368 179.112 125.624 178.545 C 142.127 178.151 163.43 177.63 179.845 178.568 C 187.032 178.979 187.58 187.186 181.398 189.282 L 145.276 189.286 C 137.127 189.285 122.992 192.627 120.622 183.781 Z" stroke-linecap="round" />
</g>
		<g transform="matrix(2 0 0 2 -33.23 -143.2)" id="path_4"  >
<path style="stroke: none; stroke-width: 1; stroke-dasharray: none; stroke-linecap: butt; stroke-dashoffset: 0; stroke-linejoin: miter; stroke-miterlimit: 4; fill: rgb(209,0,209); fill-rule: nonzero; opacity: 1;"  transform=" translate(-239.06, -183.89)" d="M 272.744 189.282 C 269.042 189.45 265.269 189.296 261.56 189.294 L 218.102 189.274 C 214.009 189.272 203.015 190.832 201.393 185.674 C 200.379 182.448 202.428 179.46 205.482 178.545 C 209.164 178.397 212.904 178.535 216.593 178.536 L 259.326 178.546 C 263.522 178.548 274.412 176.908 276.532 181.709 C 277.981 184.991 275.799 188.118 272.744 189.282 Z" stroke-linecap="round" />
</g>
		<g transform="matrix(2 0 0 2 -226.96 -86.74)" id="path_5"  >
<path style="stroke: none; stroke-width: 1; stroke-dasharray: none; stroke-linecap: butt; stroke-dashoffset: 0; stroke-linejoin: miter; stroke-miterlimit: 4; fill: rgb(209,0,209); fill-rule: nonzero; opacity: 1;"  transform=" translate(-142.19, -212.12)" d="M 159.617 217.433 C 154.744 217.928 126.524 217.653 124.492 217.074 C 119.603 215.679 120.388 208.567 124.526 206.705 L 146.75 206.688 C 150.812 206.689 155.715 206.173 159.66 207.096 C 165.221 208.396 163.68 215.316 159.617 217.433 Z" stroke-linecap="round" />
</g>
		<g transform="matrix(2 0 0 2 -55.01 -86.79)" id="path_6"  >
<path style="stroke: none; stroke-width: 1; stroke-dasharray: none; stroke-linecap: butt; stroke-dashoffset: 0; stroke-linejoin: miter; stroke-miterlimit: 4; fill: rgb(209,0,209); fill-rule: nonzero; opacity: 1;"  transform=" translate(-228.17, -212.09)" d="M 272.744 217.433 C 263.136 217.544 186.154 218.369 182.249 216.768 C 177.189 214.694 179.209 208.358 183.571 206.705 C 189.135 206.541 194.75 206.693 200.318 206.697 L 257.04 206.695 C 261.005 206.694 271.445 205.664 274.763 207.79 C 278.791 210.37 277.193 216.508 272.744 217.433 Z" stroke-linecap="round" />
</g>
		<g transform="matrix(2 0 0 2 72.62 86.52)" id="path_7"  >
<path style="stroke: none; stroke-width: 1; stroke-dasharray: none; stroke-linecap: butt; stroke-dashoffset: 0; stroke-linejoin: miter; stroke-miterlimit: 4; fill: rgb(209,0,209); fill-rule: nonzero; opacity: 1;"  transform=" translate(-291.99, -298.75)" d="M 292.56 310.167 C 277.85 310.975 276.178 289.168 291.525 287.305 C 305.961 287.767 307.872 307.432 292.56 310.167 Z" stroke-linecap="round" />
</g>
		<g transform="matrix(2 0 0 2 151.62 86.51)" id="path_8"  >
<path style="stroke: none; stroke-width: 1; stroke-dasharray: none; stroke-linecap: butt; stroke-dashoffset: 0; stroke-linejoin: miter; stroke-miterlimit: 4; fill: rgb(209,0,209); fill-rule: nonzero; opacity: 1;"  transform=" translate(-331.49, -298.74)" d="M 333.097 310.167 C 317.781 311.591 315.728 290.267 329.999 287.305 C 343.972 286.119 348.151 305.862 333.097 310.167 Z" stroke-linecap="round" />
</g>
		<g transform="matrix(2 0 0 2 228.95 86.47)" id="path_9"  >
<path style="stroke: none; stroke-width: 1; stroke-dasharray: none; stroke-linecap: butt; stroke-dashoffset: 0; stroke-linejoin: miter; stroke-miterlimit: 4; fill: rgb(209,0,209); fill-rule: nonzero; opacity: 1;"  transform=" translate(-370.15, -298.72)" d="M 371.894 310.167 C 356.175 310.224 354.639 290.41 368.739 287.305 C 383.518 286.443 385.968 306.432 371.894 310.167 Z" stroke-linecap="round" />
</g>
</g>
</g>
<g transform="matrix(0.69 0 0 0.69 250 250)"  >
<g style=""   >
		<g transform="matrix(2 0 0 2 -116.41 -82.69)" id="path_0"  >
<path style="stroke: none; stroke-width: 1; stroke-dasharray: none; stroke-linecap: butt; stroke-dashoffset: 0; stroke-linejoin: miter; stroke-miterlimit: 4; fill: rgb(209,0,209); fill-rule: nonzero; opacity: 1;"  transform=" translate(-197.47, -214.14)" d="M 113.782 276.345 C 94.734 278.199 77.2171 261.86 74.8022 243.498 C 73.902 236.654 74.4523 229.245 74.4528 222.322 L 74.4566 147.798 C 74.4524 141.588 73.8308 134.872 74.7914 128.746 C 77.4298 111.919 92.0846 99.3825 108.657 97.2273 L 109.023 97.2214 C 122.344 97.0203 135.698 97.2325 149.023 97.2337 L 265.994 97.2229 C 273.212 97.2124 281.108 96.5946 288.233 97.8064 C 307.513 101.086 320.607 117.7 320.692 137.093 L 320.683 228.661 C 320.693 249.672 317.117 269.169 292.529 275.328 C 285.237 277.154 275.09 276.343 267.427 276.343 L 232.312 276.345 L 186.874 276.345 C 182.642 280.066 178.706 284.31 174.689 288.279 L 147.242 315.713 C 143.214 319.724 137.167 326.483 132.753 329.545 C 126.486 333.891 115.675 329.279 114.136 321.815 C 113.212 317.332 113.764 311.086 113.765 306.37 L 113.782 276.345 Z M 113.782 107.793 C 88.6716 109.458 85.1985 124.866 85.2507 146.324 L 85.259 217.378 C 85.2555 235.75 82.3608 260.828 107.372 265.403 C 125.463 268.712 124.569 260.951 124.54 283.221 L 124.508 306.419 C 124.506 308.034 123.633 320.866 126.103 320.483 L 125.669 320.367 C 128.685 320.388 137.777 309.838 140.364 307.287 L 165.825 282.074 C 183.432 264.397 177.319 265.831 201.95 265.837 L 228.375 265.846 L 267.105 265.836 C 273.546 265.839 283.695 266.571 289.678 265.179 C 308.151 260.88 310.048 245.916 310.055 230.716 L 310.053 138.483 C 310.043 129.138 308.008 122.478 301.213 115.768 C 291.5 106.177 278.615 107.79 266.129 107.791 L 113.782 107.793 Z" stroke-linecap="round" />
</g>
		<g transform="matrix(2 0 0 2 -113.51 -198.47)" id="path_1"  >
<path style="stroke: none; stroke-width: 1; stroke-dasharray: none; stroke-linecap: butt; stroke-dashoffset: 0; stroke-linejoin: miter; stroke-miterlimit: 4; fill: rgb(209,0,209); fill-rule: nonzero; opacity: 1;"  transform=" translate(-198.92, -156.25)" d="M 208.625 161.538 L 135.801 161.535 C 131.848 161.552 121.058 163.05 120.759 156.95 C 120.398 149.564 128.565 150.912 133.489 150.93 L 189.326 150.952 L 262.496 150.933 C 267.004 150.913 277.188 149.462 277.089 156.479 C 277 162.745 269.179 161.566 265.004 161.562 L 208.625 161.538 Z" stroke-linecap="round" />
</g>
		<g transform="matrix(2 0 0 2 148.51 78.65)" id="path_2"  >
<path style="stroke: none; stroke-width: 1; stroke-dasharray: none; stroke-linecap: butt; stroke-dashoffset: 0; stroke-linejoin: miter; stroke-miterlimit: 4; fill: rgb(209,0,209); fill-rule: nonzero; opacity: 1;"  transform=" translate(-329.93, -294.81)" d="M 222.933 306.37 C 222.914 302.87 221.503 283.918 231.125 290.432 C 234.645 292.815 233.567 299.173 233.529 302.742 L 233.505 317.877 C 233.515 322.094 233.277 326.56 234.169 330.699 C 238.87 352.511 261.105 349.464 277.544 349.461 L 316.36 349.493 C 321.783 349.485 328.44 347.684 332.877 351.567 C 344.472 361.717 379.406 400.655 385.027 403.035 C 389.069 404.747 387.755 389.552 387.754 387.713 L 387.734 364.859 C 387.73 361.125 387.034 355.351 388.558 351.923 C 390.431 347.712 405.513 350.16 412.477 347.161 C 428.901 340.088 426.234 322.239 426.234 307.741 L 426.231 230.3 C 426.227 213.71 429.727 193.276 409.277 187.204 C 403.954 185.624 389.982 186.35 383.642 186.35 L 351.508 186.339 C 347.929 186.352 341.138 187.079 338.007 185.735 C 332.846 183.52 334.756 177.274 339.282 175.789 C 343.112 175.612 347.026 175.771 350.863 175.775 L 392.616 175.777 C 398.949 175.775 405.871 175.338 412.052 176.871 C 440.858 184.017 436.915 213.682 436.915 236.009 L 436.911 315.244 C 436.896 344.147 429.73 358.75 398.481 359.822 L 398.5 389.05 C 398.506 399.063 400.432 413.926 385.004 413.918 C 378.629 413.915 375.857 409.729 371.707 405.554 L 326.385 360.287 C 319.442 359.347 312.027 359.811 305.014 359.811 L 269.184 359.83 C 254.585 359.85 243.985 360.68 232.85 349.511 C 220.725 337.349 222.908 321.988 222.933 306.37 Z" stroke-linecap="round" />
</g>
		<g transform="matrix(2 0 0 2 -205.06 -143.03)" id="path_3"  >
<path style="stroke: none; stroke-width: 1; stroke-dasharray: none; stroke-linecap: butt; stroke-dashoffset: 0; stroke-linejoin: miter; stroke-miterlimit: 4; fill: rgb(209,0,209); fill-rule: nonzero; opacity: 1;"  transform=" translate(-153.14, -183.97)" d="M 120.622 183.781 C 121.426 180.812 122.368 179.112 125.624 178.545 C 142.127 178.151 163.43 177.63 179.845 178.568 C 187.032 178.979 187.58 187.186 181.398 189.282 L 145.276 189.286 C 137.127 189.285 122.992 192.627 120.622 183.781 Z" stroke-linecap="round" />
</g>
		<g transform="matrix(2 0 0 2 -33.23 -143.2)" id="path_4"  >
<path style="stroke: none; stroke-width: 1; stroke-dasharray: none; stroke-linecap: butt; stroke-dashoffset: 0; stroke-linejoin: miter; stroke-miterlimit: 4; fill: rgb(209,0,209); fill-rule: nonzero; opacity: 1;"  transform=" translate(-239.06, -183.89)" d="M 272.744 189.282 C 269.042 189.45 265.269 189.296 261.56 189.294 L 218.102 189.274 C 214.009 189.272 203.015 190.832 201.393 185.674 C 200.379 182.448 202.428 179.46 205.482 178.545 C 209.164 178.397 212.904 178.535 216.593 178.536 L 259.326 178.546 C 263.522 178.548 274.412 176.908 276.532 181.709 C 277.981 184.991 275.799 188.118 272.744 189.282 Z" stroke-linecap="round" />
</g>
		<g transform="matrix(2 0 0 2 -226.96 -86.74)" id="path_5"  >
<path style="stroke: none; stroke-width: 1; stroke-dasharray: none; stroke-linecap: butt; stroke-dashoffset: 0; stroke-linejoin: miter; stroke-miterlimit: 4; fill: rgb(209,0,209); fill-rule: nonzero; opacity: 1;"  transform=" translate(-142.19, -212.12)" d="M 159.617 217.433 C 154.744 217.928 126.524 217.653 124.492 217.074 C 119.603 215.679 120.388 208.567 124.526 206.705 L 146.75 206.688 C 150.812 206.689 155.715 206.173 159.66 207.096 C 165.221 208.396 163.68 215.316 159.617 217.433 Z" stroke-linecap="round" />
</g>
		<g transform="matrix(2 0 0 2 -55.01 -86.79)" id="path_6"  >
<path style="stroke: none; stroke-width: 1; stroke-dasharray: none; stroke-linecap: butt; stroke-dashoffset: 0; stroke-linejoin: miter; stroke-miterlimit: 4; fill: rgb(209,0,209); fill-rule: nonzero; opacity: 1;"  transform=" translate(-228.17, -212.09)" d="M 272.744 217.433 C 263.136 217.544 186.154 218.369 182.249 216.768 C 177.189 214.694 179.209 208.358 183.571 206.705 C 189.135 206.541 194.75 206.693 200.318 206.697 L 257.04 206.695 C 261.005 206.694 271.445 205.664 274.763 207.79 C 278.791 210.37 277.193 216.508 272.744 217.433 Z" stroke-linecap="round" />
</g>
		<g transform="matrix(2 0 0 2 72.62 86.52)" id="path_7"  >
<path style="stroke: none; stroke-width: 1; stroke-dasharray: none; stroke-linecap: butt; stroke-dashoffset: 0; stroke-linejoin: miter; stroke-miterlimit: 4; fill: rgb(209,0,209); fill-rule: nonzero; opacity: 1;"  transform=" translate(-291.99, -298.75)" d="M 292.56 310.167 C 277.85 310.975 276.178 289.168 291.525 287.305 C 305.961 287.767 307.872 307.432 292.56 310.167 Z" stroke-linecap="round" />
</g>
		<g transform="matrix(2 0 0 2 151.62 86.51)" id="path_8"  >
<path style="stroke: none; stroke-width: 1; stroke-dasharray: none; stroke-linecap: butt; stroke-dashoffset: 0; stroke-linejoin: miter; stroke-miterlimit: 4; fill: rgb(209,0,209); fill-rule: nonzero; opacity: 1;"  transform=" translate(-331.49, -298.74)" d="M 333.097 310.167 C 317.781 311.591 315.728 290.267 329.999 287.305 C 343.972 286.119 348.151 305.862 333.097 310.167 Z" stroke-linecap="round" />
</g>
		<g transform="matrix(2 0 0 2 228.95 86.47)" id="path_9"  >
<path style="stroke: none; stroke-width: 1; stroke-dasharray: none; stroke-linecap: butt; stroke-dashoffset: 0; stroke-linejoin: miter; stroke-miterlimit: 4; fill: rgb(209,0,209); fill-rule: nonzero; opacity: 1;"  transform=" translate(-370.15, -298.72)" d="M 371.894 310.167 C 356.175 310.224 354.639 290.41 368.739 287.305 C 383.518 286.443 385.968 306.432 371.894 310.167 Z" stroke-linecap="round" />
</g>
</g>
</g>
</svg>